# xmcd CD database file
#
# Track frame offsets:
#	275
#	12800
#	27267
#	41782
#	58149
#	75250
#	89059
#	103052
#	115190
#	129005
#	143443
#	156973
#	170518
#	185236
#	199408
#	212265
#	224884
#	238057
#	250854
#	262615
#	275040
#	288562
#	303104
#	317362
#	331612
#
# Disc length: 4596 seconds
#
# Revision: 0
# Processed by: cddbd v1.5.1PL0 Copyright (c) Steve Scherf et al.
# Submitted via: cdripper 1.0.12
#
DISCID=6311f119
DTITLE=John Lee Hooker - I'm In The Mood
DYEAR=2004
DGENRE=Blues
TTITLE0=War Is Over (Goodbye California)
TTITLE1=Boogie Chillen
TTITLE2=Stomp Boogie
TTITLE3=Black Man Blues
TTITLE4=Goin' Mad Blues
TTITLE5=Drifting From Door To Door
TTITLE6=Hobo Blues
TTITLE7=Howlin' Wolf
TTITLE8=Crawling King Snake
TTITLE9=Whistlin' And Moaning Blues
TTITLE10=Hoogie Boogie
TTITLE11=Nightmare Blues
TTITLE12=Don't Go Baby
TTITLE13=I'm Gonna Kill That Woman
TTITLE14=Weeping Willow Boogie
TTITLE15=Morning Blues
TTITLE16=No Friend Around (T.B.'S Killin' Me)
TTITLE17=Huckle Up Baby
TTITLE18=Queen Bee
TTITLE19=House Rent Boogie
TTITLE20=Wandering Blues
TTITLE21=Women In My Life
TTITLE22=I'm In The Mood
TTITLE23=Turn Over A New Leaf
TTITLE24=Rock House Boogie
EXTD=YEAR: 2004
EXTT0=
EXTT1=
EXTT2=
EXTT3=
EXTT4=
EXTT5=
EXTT6=
EXTT7=
EXTT8=
EXTT9=
EXTT10=
EXTT11=
EXTT12=
EXTT13=
EXTT14=
EXTT15=
EXTT16=
EXTT17=
EXTT18=
EXTT19=
EXTT20=
EXTT21=
EXTT22=
EXTT23=
EXTT24=
PLAYORDER=
